
<svg width="29px" height="30px" viewBox="0 0 29 30" version="1.1" xmlns="http://www.w3.org/2000/svg" xmlns:xlink="http://www.w3.org/1999/xlink">
    <!-- Generator: Sketch 50.2 (55047) - http://www.bohemiancoding.com/sketch -->
    <desc>Created with Sketch.</desc>
    <defs></defs>
    <g id="Page-1" stroke="none" stroke-width="1" fill="none" fill-rule="evenodd">
        <g id="Group-6" fill="#0277B5" fill-rule="nonzero">
            <path d="M10.4869582,16.5221472 C10.4869582,16.1469939 10.1860377,15.8430675 9.81474059,15.8430675 L7.46895607,15.8430675 C7.09808368,15.8430675 6.79710251,16.1469939 6.79710251,16.5221472 L6.79710251,18.8939264 C6.79710251,19.2695706 7.09808368,19.5736196 7.46895607,19.5736196 L9.81474059,19.5736196 C10.1860377,19.5736196 10.4869582,19.2695706 10.4869582,18.8939264 L10.4869582,16.5221472 Z" id="Shape"></path>
            <path d="M16.349387,16.5221472 C16.349387,16.1469939 16.0484059,15.8430675 15.6778368,15.8430675 L13.331749,15.8430675 C12.9608766,15.8430675 12.6598954,16.1469939 12.6598954,16.5221472 L12.6598954,18.8939264 C12.6598954,19.2695706 12.9608766,19.5736196 13.331749,19.5736196 L15.6778368,19.5736196 C16.0484059,19.5736196 16.349387,19.2695706 16.349387,18.8939264 L16.349387,16.5221472 Z" id="Shape"></path>
            <path d="M22.2121192,16.5221472 C22.2121192,16.1469939 21.9111381,15.8430675 21.5402657,15.8430675 L19.1944812,15.8430675 C18.8231841,15.8430675 18.5222636,16.1469939 18.5222636,16.5221472 L18.5222636,18.8939264 C18.5222636,19.2695706 18.8231841,19.5736196 19.1944812,19.5736196 L21.5402657,19.5736196 C21.9111381,19.5736196 22.2121192,19.2695706 22.2121192,18.8939264 L22.2121192,16.5221472 Z" id="Shape"></path>
            <path d="M10.4869582,22.4509202 C10.4869582,22.0751534 10.1860377,21.7714724 9.81474059,21.7714724 L7.46895607,21.7714724 C7.09808368,21.7714724 6.79710251,22.0751534 6.79710251,22.4509202 L6.79710251,24.8222699 C6.79710251,25.1976687 7.09808368,25.5016564 7.46895607,25.5016564 L9.81474059,25.5016564 C10.1860377,25.5016564 10.4869582,25.1976074 10.4869582,24.8222699 L10.4869582,22.4509202 Z" id="Shape"></path>
            <path d="M16.349387,22.4509202 C16.349387,22.0751534 16.0484059,21.7714724 15.6778368,21.7714724 L13.331749,21.7714724 C12.9608766,21.7714724 12.6598954,22.0751534 12.6598954,22.4509202 L12.6598954,24.8222699 C12.6598954,25.1976687 12.9608766,25.5016564 13.331749,25.5016564 L15.6778368,25.5016564 C16.0484059,25.5016564 16.349387,25.1976074 16.349387,24.8222699 L16.349387,22.4509202 Z" id="Shape"></path>
            <path d="M22.2121192,22.4509202 C22.2121192,22.0751534 21.9111381,21.7714724 21.540569,21.7714724 L19.1944812,21.7714724 C18.8231841,21.7714724 18.5222636,22.0751534 18.5222636,22.4509202 L18.5222636,24.8222699 C18.5222636,25.1976687 18.8231841,25.5016564 19.1944812,25.5016564 L21.540569,25.5016564 C21.9111381,25.5016564 22.2121192,25.1976074 22.2121192,24.8222699 L22.2121192,22.4509202 Z" id="Shape"></path>
            <path d="M26.4066234,3.33460123 L26.4066234,6.95730061 C26.4066234,8.59472393 25.0930084,9.91423313 23.4739833,9.91423313 L21.6239895,9.91423313 C20.0048431,9.91423313 18.6738159,8.59472393 18.6738159,6.95730061 L18.6738159,3.32159509 L10.3354059,3.32159509 L10.3354059,6.95730061 C10.3354059,8.59472393 9.00443933,9.91423313 7.38553556,9.91423313 L5.53517782,9.91423313 C3.91621339,9.91423313 2.602659,8.59472393 2.602659,6.95730061 L2.602659,3.33460123 C1.18766527,3.37773006 0.0249351464,4.56171779 0.0249351464,6.01699387 L0.0249351464,27.2477301 C0.0249351464,28.7303681 1.21332845,29.9480368 2.6795272,29.9480368 L26.3296946,29.9480368 C27.7937092,29.9480368 28.9842866,28.7278528 28.9842866,27.2477301 L28.9842866,6.01699387 C28.9842866,4.56171779 27.8216172,3.37773006 26.4066234,3.33460123 Z M25.5473619,25.9256442 C25.5473619,26.5663804 25.033613,27.0861963 24.3997385,27.0861963 L4.55894561,27.0861963 C3.92507113,27.0861963 3.41132218,26.5663804 3.41132218,25.9256442 L3.41132218,14.9592025 C3.41132218,14.3182209 3.92501046,13.7984049 4.55894561,13.7984049 L24.3996778,13.7984049 C25.0335523,13.7984049 25.5473013,14.3182209 25.5473013,14.9592025 L25.5473619,25.9256442 Z" id="Shape"></path>
            <path d="M5.52868619,7.97208589 L7.35859833,7.97208589 C7.9140272,7.97208589 8.36437657,7.51736196 8.36437657,6.95570552 L8.36437657,1.01674847 C8.36437657,0.455030675 7.9140272,0 7.35859833,0 L5.52868619,0 C4.97319665,0 4.52290795,0.455030675 4.52290795,1.01674847 L4.52290795,6.95570552 C4.52290795,7.51736196 4.97319665,7.97208589 5.52868619,7.97208589 Z" id="Shape"></path>
            <path d="M21.6004498,7.97208589 L23.4303619,7.97208589 C23.9854268,7.97208589 24.4357762,7.51736196 24.4357762,6.95570552 L24.4357762,1.01674847 C24.4358368,0.455030675 23.9854874,0 23.4303619,0 L21.6004498,0 C21.0450816,0 20.5947322,0.455030675 20.5947322,1.01674847 L20.5947322,6.95570552 C20.5947322,7.51736196 21.0450816,7.97208589 21.6004498,7.97208589 Z" id="Shape"></path>
        </g>
    </g>
</svg>