
<svg width="24px" height="25px" viewBox="0 0 24 25" version="1.1" xmlns="http://www.w3.org/2000/svg" xmlns:xlink="http://www.w3.org/1999/xlink">
    <!-- Generator: Sketch 50.2 (55047) - http://www.bohemiancoding.com/sketch -->
    <desc>Created with Sketch.</desc>
    <defs></defs>
    <g id="Page-1" stroke="none" stroke-width="1" fill="none" fill-rule="evenodd">
        <g id="Group-9" fill="#4C4C4C" fill-rule="nonzero">
            <path d="M8.67886192,13.768456 C8.67886192,13.4558282 8.42982427,13.2025562 8.12254393,13.2025562 L6.18120502,13.2025562 C5.87427615,13.2025562 5.62518828,13.4558282 5.62518828,13.768456 L5.62518828,15.7449387 C5.62518828,16.0579755 5.87427615,16.3113497 6.18120502,16.3113497 L8.12254393,16.3113497 C8.42982427,16.3113497 8.67886192,16.0579755 8.67886192,15.7449387 L8.67886192,13.768456 Z" id="Shape"></path>
            <path d="M13.5305272,13.768456 C13.5305272,13.4558282 13.2814393,13.2025562 12.9747615,13.2025562 L11.0331715,13.2025562 C10.7262427,13.2025562 10.4771548,13.4558282 10.4771548,13.768456 L10.4771548,15.7449387 C10.4771548,16.0579755 10.7262427,16.3113497 11.0331715,16.3113497 L12.9747615,16.3113497 C13.2814393,16.3113497 13.5305272,16.0579755 13.5305272,15.7449387 L13.5305272,13.768456 Z" id="Shape"></path>
            <path d="M18.3824435,13.768456 C18.3824435,13.4558282 18.1333556,13.2025562 17.8264268,13.2025562 L15.8850879,13.2025562 C15.5778075,13.2025562 15.3287699,13.4558282 15.3287699,13.768456 L15.3287699,15.7449387 C15.3287699,16.0579755 15.5778075,16.3113497 15.8850879,16.3113497 L17.8264268,16.3113497 C18.1333556,16.3113497 18.3824435,16.0579755 18.3824435,15.7449387 L18.3824435,13.768456 Z" id="Shape"></path>
            <path d="M8.67886192,18.7091002 C8.67886192,18.3959611 8.42982427,18.1428937 8.12254393,18.1428937 L6.18120502,18.1428937 C5.87427615,18.1428937 5.62518828,18.3959611 5.62518828,18.7091002 L5.62518828,20.6852249 C5.62518828,20.9980573 5.87427615,21.2513804 6.18120502,21.2513804 L8.12254393,21.2513804 C8.42982427,21.2513804 8.67886192,20.9980061 8.67886192,20.6852249 L8.67886192,18.7091002 Z" id="Shape"></path>
            <path d="M13.5305272,18.7091002 C13.5305272,18.3959611 13.2814393,18.1428937 12.9747615,18.1428937 L11.0331715,18.1428937 C10.7262427,18.1428937 10.4771548,18.3959611 10.4771548,18.7091002 L10.4771548,20.6852249 C10.4771548,20.9980573 10.7262427,21.2513804 11.0331715,21.2513804 L12.9747615,21.2513804 C13.2814393,21.2513804 13.5305272,20.9980061 13.5305272,20.6852249 L13.5305272,18.7091002 Z" id="Shape"></path>
            <path d="M18.3824435,18.7091002 C18.3824435,18.3959611 18.1333556,18.1428937 17.8266778,18.1428937 L15.8850879,18.1428937 C15.5778075,18.1428937 15.3287699,18.3959611 15.3287699,18.7091002 L15.3287699,20.6852249 C15.3287699,20.9980573 15.5778075,21.2513804 15.8850879,21.2513804 L17.8266778,21.2513804 C18.1333556,21.2513804 18.3824435,20.9980061 18.3824435,20.6852249 L18.3824435,18.7091002 Z" id="Shape"></path>
            <path d="M21.8537573,2.77883436 L21.8537573,5.79775051 C21.8537573,7.16226994 20.7666276,8.26186094 19.4267448,8.26186094 L17.8957155,8.26186094 C16.5557322,8.26186094 15.4541925,7.16226994 15.4541925,5.79775051 L15.4541925,2.76799591 L8.55343933,2.76799591 L8.55343933,5.79775051 C8.55343933,7.16226994 7.45194979,8.26186094 6.11216736,8.26186094 L4.58083682,8.26186094 C3.24100418,8.26186094 2.15392469,7.16226994 2.15392469,5.79775051 L2.15392469,2.77883436 C0.982895397,2.81477505 0.0206359833,3.80143149 0.0206359833,5.01416155 L0.0206359833,22.7064417 C0.0206359833,23.9419734 1.00413389,24.9566973 2.21753975,24.9566973 L21.7900921,24.9566973 C23.0016904,24.9566973 23.9869958,23.9398773 23.9869958,22.7064417 L23.9869958,5.01416155 C23.9869958,3.80143149 23.0247866,2.81477505 21.8537573,2.77883436 Z M21.1426444,21.6047035 C21.1426444,22.1386503 20.7174728,22.5718303 20.192887,22.5718303 L3.7729205,22.5718303 C3.24833473,22.5718303 2.82316318,22.1386503 2.82316318,21.6047035 L2.82316318,12.466002 C2.82316318,11.9318507 3.24828452,11.4986708 3.7729205,11.4986708 L20.1928368,11.4986708 C20.7174226,11.4986708 21.1425941,11.9318507 21.1425941,12.466002 L21.1426444,21.6047035 Z" id="Shape"></path>
            <path d="M4.57546444,6.64340491 L6.08987448,6.64340491 C6.54953975,6.64340491 6.92224268,6.2644683 6.92224268,5.79642127 L6.92224268,0.847290389 C6.92224268,0.379192229 6.54953975,0 6.08987448,0 L4.57546444,0 C4.11574895,0 3.74309623,0.379192229 3.74309623,0.847290389 L3.74309623,5.79642127 C3.74309623,6.2644683 4.11574895,6.64340491 4.57546444,6.64340491 Z" id="Shape"></path>
            <path d="M17.8762343,6.64340491 L19.3906444,6.64340491 C19.8500084,6.64340491 20.2227113,6.2644683 20.2227113,5.79642127 L20.2227113,0.847290389 C20.2227615,0.379192229 19.8500586,0 19.3906444,0 L17.8762343,0 C17.4166192,0 17.0439163,0.379192229 17.0439163,0.847290389 L17.0439163,5.79642127 C17.0439163,6.2644683 17.4166192,6.64340491 17.8762343,6.64340491 Z" id="Shape"></path>
        </g>
    </g>
</svg>