
<svg width="26px" height="25px" viewBox="0 0 26 25" version="1.1" xmlns="http://www.w3.org/2000/svg" xmlns:xlink="http://www.w3.org/1999/xlink">
    <!-- Generator: Sketch 50.2 (55047) - http://www.bohemiancoding.com/sketch -->
    <desc>Created with Sketch.</desc>
    <defs></defs>
    <g id="Page-1" stroke="none" stroke-width="1" fill="none" fill-rule="evenodd">
        <g id="Group-10" fill="#4C4C4C" fill-rule="nonzero">
            <path d="M13,0.215517241 C5.8318,0.215517241 3.58560539e-13,5.4362069 3.58560539e-13,11.8534483 C3.58560539e-13,14.0965517 0.713266667,16.2693966 2.06613333,18.1482759 C1.81003333,20.9659483 1.12363333,23.0577586 0.126966667,24.0487069 C-0.00476666667,24.1797414 -0.0377,24.3801724 0.0455,24.5456897 C0.119166667,24.6935345 0.270833333,24.7844828 0.433333333,24.7844828 C0.453266667,24.7844828 0.4732,24.7831897 0.493566667,24.7801724 C0.669066667,24.7556034 4.74586667,24.1719828 7.6947,22.4788793 C9.3691,23.1508621 11.1527,23.4913793 13,23.4913793 C20.1682,23.4913793 26,18.2706897 26,11.8534483 C26,5.4362069 20.1682,0.215517241 13,0.215517241 Z M6.93333333,13.5775862 C5.9774,13.5775862 5.2,12.8043103 5.2,11.8534483 C5.2,10.9025862 5.9774,10.1293103 6.93333333,10.1293103 C7.88926667,10.1293103 8.66666667,10.9025862 8.66666667,11.8534483 C8.66666667,12.8043103 7.88926667,13.5775862 6.93333333,13.5775862 Z M13,13.5775862 C12.0440667,13.5775862 11.2666667,12.8043103 11.2666667,11.8534483 C11.2666667,10.9025862 12.0440667,10.1293103 13,10.1293103 C13.9559333,10.1293103 14.7333333,10.9025862 14.7333333,11.8534483 C14.7333333,12.8043103 13.9559333,13.5775862 13,13.5775862 Z M19.0666667,13.5775862 C18.1107333,13.5775862 17.3333333,12.8043103 17.3333333,11.8534483 C17.3333333,10.9025862 18.1107333,10.1293103 19.0666667,10.1293103 C20.0226,10.1293103 20.8,10.9025862 20.8,11.8534483 C20.8,12.8043103 20.0226,13.5775862 19.0666667,13.5775862 Z" id="Shape"></path>
        </g>
    </g>
</svg>