
<svg width="31px" height="30px" viewBox="0 0 31 30" version="1.1" xmlns="http://www.w3.org/2000/svg" xmlns:xlink="http://www.w3.org/1999/xlink">
    <!-- Generator: Sketch 50.2 (55047) - http://www.bohemiancoding.com/sketch -->
    <desc>Created with Sketch.</desc>
    <defs></defs>
    <g id="Page-1" stroke="none" stroke-width="1" fill="none" fill-rule="evenodd">
        <g id="Group-4" fill="#0277B5" fill-rule="nonzero">
            <path d="M15.5,0.25862069 C6.9533,0.25862069 -2.72328479e-14,6.52344828 -2.72328479e-14,14.2241379 C-2.72328479e-14,16.9158621 0.850433333,19.5232759 2.46346667,21.777931 C2.15811667,25.1591379 1.33971667,27.6693103 0.151383333,28.8584483 C-0.00568333333,29.0156897 -0.04495,29.2562069 0.05425,29.4548276 C0.142083333,29.6322414 0.322916667,29.7413793 0.516666667,29.7413793 C0.540433333,29.7413793 0.5642,29.7398276 0.588483333,29.7362069 C0.797733333,29.7067241 5.65853333,29.0063793 9.17445,26.9746552 C11.17085,27.7810345 13.29745,28.1896552 15.5,28.1896552 C24.0467,28.1896552 31,21.9248276 31,14.2241379 C31,6.52344828 24.0467,0.25862069 15.5,0.25862069 Z M8.26666667,16.2931034 C7.1269,16.2931034 6.2,15.3651724 6.2,14.2241379 C6.2,13.0831034 7.1269,12.1551724 8.26666667,12.1551724 C9.40643333,12.1551724 10.3333333,13.0831034 10.3333333,14.2241379 C10.3333333,15.3651724 9.40643333,16.2931034 8.26666667,16.2931034 Z M15.5,16.2931034 C14.3602333,16.2931034 13.4333333,15.3651724 13.4333333,14.2241379 C13.4333333,13.0831034 14.3602333,12.1551724 15.5,12.1551724 C16.6397667,12.1551724 17.5666667,13.0831034 17.5666667,14.2241379 C17.5666667,15.3651724 16.6397667,16.2931034 15.5,16.2931034 Z M22.7333333,16.2931034 C21.5935667,16.2931034 20.6666667,15.3651724 20.6666667,14.2241379 C20.6666667,13.0831034 21.5935667,12.1551724 22.7333333,12.1551724 C23.8731,12.1551724 24.8,13.0831034 24.8,14.2241379 C24.8,15.3651724 23.8731,16.2931034 22.7333333,16.2931034 Z" id="Shape"></path>
        </g>
    </g>
</svg>