
<svg width="25px" height="25px" viewBox="0 0 25 25" version="1.1" xmlns="http://www.w3.org/2000/svg" xmlns:xlink="http://www.w3.org/1999/xlink">
    <!-- Generator: Sketch 50.2 (55047) - http://www.bohemiancoding.com/sketch -->
    <desc>Created with Sketch.</desc>
    <defs></defs>
    <g id="Page-1" stroke="none" stroke-width="1" fill="none" fill-rule="evenodd">
        <g id="Group-15" fill="#4C4C4C" fill-rule="nonzero">
            <path d="M23.4901786,1.17455357 C21.9232143,-0.391517857 19.3745536,-0.391517857 17.8075893,1.17455357 L1.70848214,17.2736607 C1.70089286,17.28125 1.69642857,17.290625 1.68973214,17.2986607 C1.68035714,17.309375 1.67232143,17.3209821 1.66383929,17.3325893 C1.64017857,17.365625 1.621875,17.4008929 1.60803571,17.4392857 C1.60401786,17.4508929 1.59821429,17.4611607 1.59508929,17.4727679 C1.59375,17.4772321 1.59107143,17.4816964 1.58973214,17.4861607 L0.0116071429,24.115625 C0.00446428571,24.1455357 0.00267857143,24.1758929 0.00178571429,24.2058036 C0.00178571429,24.2116071 0,24.2169643 0,24.2227679 C0.000446428571,24.2736607 0.0116071429,24.3232143 0.0290178571,24.3709821 C0.0330357143,24.3821429 0.0375,24.3919643 0.0424107143,24.4026786 C0.0642857143,24.4504464 0.0915178571,24.4964286 0.129910714,24.5348214 C0.172321429,24.5772321 0.222321429,24.6098214 0.276339286,24.6321429 C0.330357143,24.6544643 0.387946429,24.665625 0.445535714,24.665625 C0.479910714,24.665625 0.514732143,24.6616071 0.548660714,24.6535714 L7.178125,23.0754464 C7.19017857,23.0727679 7.20089286,23.0660714 7.2125,23.0620536 C7.22767857,23.0571429 7.24196429,23.0513393 7.25669643,23.0446429 C7.28883929,23.0299107 7.31875,23.0116071 7.34642857,22.9897321 C7.35714286,22.98125 7.36830357,22.975 7.37857143,22.965625 C7.38214286,22.9620536 7.38660714,22.9602679 7.39017857,22.9566964 L23.4897321,6.85714286 C25.0566964,5.29017857 25.0566964,2.74107143 23.4901786,1.17455357 Z M22.8589286,1.80580357 C23.9696429,2.91696429 24.0642857,4.66160714 23.1491071,5.88482143 L18.7799107,1.515625 C20.0035714,0.600446429 21.7482143,0.695089286 22.8589286,1.80580357 Z M20.6491071,8.43526786 L16.2294643,4.015625 L16.8607143,3.384375 L21.2803571,7.80401786 L20.6491071,8.43526786 Z M2.21473214,22.45 C2.04017857,22.2754464 1.75803571,22.2754464 1.58348214,22.45 L1.24553571,22.7879464 L2.38571429,17.9986607 L4.35982143,17.7794643 L4.10580357,20.0660714 C4.10401786,20.0830357 4.11026786,20.0986607 4.11026786,20.1151786 C4.11026786,20.1321429 4.10401786,20.1473214 4.10580357,20.1642857 C4.10758929,20.1790179 4.11517857,20.1910714 4.11830357,20.2053571 C4.12366071,20.23125 4.13125,20.2549107 4.140625,20.2790179 C4.15223214,20.3080357 4.16607143,20.334375 4.18303571,20.3598214 C4.196875,20.3803571 4.21071429,20.3986607 4.22767857,20.4165179 C4.24910714,20.4392857 4.27232143,20.4584821 4.29776786,20.4763393 C4.31785714,20.4901786 4.33705357,20.503125 4.359375,20.5138393 C4.38883929,20.5276786 4.41964286,20.5357143 4.45178571,20.5433036 C4.46875,20.5473214 4.48258929,20.5566964 4.5,20.5589286 C4.51607143,20.5607143 4.53214286,20.5616071 4.54866071,20.5616071 C4.54866071,20.5616071 4.54910714,20.5616071 4.54910714,20.5616071 C4.54910714,20.5616071 4.54955357,20.5616071 4.54955357,20.5616071 L4.55,20.5616071 C4.55,20.5616071 4.55044643,20.5616071 4.55044643,20.5616071 C4.56651786,20.5616071 4.58303571,20.5607143 4.59910714,20.5589286 L6.88571429,20.3049107 L6.66651786,22.2790179 L1.87678571,23.4191964 L2.21473214,23.08125 C2.38883929,22.9071429 2.38883929,22.6245536 2.21473214,22.45 Z M7.81741071,20.0040179 L17.8075893,10.0133929 C17.9821429,9.83883929 17.9821429,9.55669643 17.8075893,9.38214286 C17.6330357,9.20758929 17.3508929,9.20758929 17.1763393,9.38214286 L7.18616071,19.3727679 L5.05535714,19.609375 L5.29196429,17.4785714 L15.2830357,7.48839286 C15.4575893,7.31383929 15.4575893,7.03169643 15.2830357,6.85714286 C15.1084821,6.68258929 14.8263393,6.68258929 14.6517857,6.85714286 L4.66071429,16.8473214 L3.23973214,17.0053571 L15.5982143,4.646875 L20.0178571,9.06651786 L7.659375,21.425 L7.81741071,20.0040179 Z M21.9116071,7.17276786 L17.4919643,2.753125 L18.1236607,2.12142857 L22.5433036,6.54107143 L21.9116071,7.17276786 Z" id="Shape"></path>
        </g>
    </g>
</svg>