
<svg width="17px" height="17px" viewBox="0 0 17 17" version="1.1" xmlns="http://www.w3.org/2000/svg" xmlns:xlink="http://www.w3.org/1999/xlink">
    <!-- Generator: Sketch 50.2 (55047) - http://www.bohemiancoding.com/sketch -->
    <desc>Created with Sketch.</desc>
    <defs></defs>
    <g id="Page-1" stroke="none" stroke-width="1" fill="none" fill-rule="evenodd">
        <path d="M0,7.07433955 C0,10.9770633 3.17444717,14.1486791 7.07289107,14.1486791 C8.86895987,14.1486791 10.5118755,13.4732746 11.761466,12.3661683 L16.2690418,16.8746672 C16.3525799,16.9582224 16.4604832,17 16.5718673,17 C16.6832514,17 16.7911548,16.9582224 16.8746929,16.8746672 C17.041769,16.7075568 17.041769,16.4394839 16.8746929,16.2723735 L12.3636364,11.7638747 C13.470516,10.5140283 14.1457821,8.87425763 14.1457821,7.07433955 C14.1457821,3.17161581 10.971335,0 7.07289107,0 C3.17444717,0 0,3.17161581 0,7.07433955 Z M13.2929975,7.07433955 C13.2929975,10.5035839 10.5014333,13.2957198 7.07289107,13.2957198 C3.64434889,13.2957198 0.852784603,10.5035839 0.852784603,7.07433955 C0.852784603,3.64509523 3.64434889,0.852959246 7.07289107,0.852959246 C10.5014333,0.852959246 13.2929975,3.64161376 13.2929975,7.07433955 Z" id="search" fill="#FFFFFF" fill-rule="nonzero"></path>
    </g>
</svg>