
<svg width="318px" height="290px" viewBox="0 0 318 290" version="1.1" xmlns="http://www.w3.org/2000/svg" xmlns:xlink="http://www.w3.org/1999/xlink">
    <!-- Generator: Sketch 50.2 (55047) - http://www.bohemiancoding.com/sketch -->
    <desc>Created with Sketch.</desc>
    <defs>
        <rect id="path-1" x="0" y="0" width="350" height="300"></rect>
    </defs>
    <g id="Page-1" stroke="none" stroke-width="1" fill="none" fill-rule="evenodd">
        <g id="student" transform="translate(-16.000000, -10.000000)">
            <mask id="mask-2" fill="white">
                <use xlink:href="#path-1"></use>
            </mask>
            <g id="Mask"></g>
            <g mask="url(#mask-2)" fill-rule="nonzero">
                <g transform="translate(0.000000, 10.000000)">
                    <rect id="Rectangle-path" fill="#FCB47E" x="132.325591" y="234.793341" width="84.3010753" height="78.2534113"></rect>
                    <path d="M246.734194,264.890807 L309.406022,275.442226 C334.639892,282.509864 349.264624,307.268039 349.264624,330.460394 L349.264624,369.468214 C349.264624,378.200994 341.176989,385.280671 331.200108,385.280671 L18.081828,385.280671 C8.10494624,385.280671 0.017311828,378.200994 0.017311828,369.468214 L0.017311828,330.460394 C0.017311828,307.268039 14.642043,282.509864 39.875914,275.442226 L102.218065,264.890807 L174.640968,294.988273 L246.734194,264.890807 Z" id="Shape" fill="#996459"></path>
                    <path d="M74.2150538,269.630405 C74.3083871,269.823029 74.3076344,270.044246 74.422043,270.22784 C120.200538,344.025322 164.767957,353.783673 169.695806,354.64747 L173.594731,355.335197 C173.94172,355.399906 174.28871,355.429251 174.64172,355.429251 C174.994731,355.429251 175.34172,355.399906 175.68871,355.335197 L179.587634,354.64747 C184.515484,353.783673 229.082903,344.025322 274.861398,270.22784 C274.970538,270.052522 274.966022,269.84184 275.055591,269.658246 L246.735699,264.890055 L174.642473,294.98752 L102.21957,264.890055 L74.2150538,269.630405 Z" id="Shape" fill="#7E5C62"></path>
                    <path d="M120.448172,234.793341 L97.7184946,264.890807 L134.424086,319.052702 C136.545161,322.182086 140.992796,322.605708 143.667097,319.933053 L174.64172,294.988273 L120.448172,234.793341 Z" id="Shape" fill="#4BB9EC"></path>
                    <path d="M228.834516,234.793341 L251.564194,264.890807 L214.858602,319.052702 C212.737527,322.182086 208.289892,322.605708 205.615591,319.933053 L174.640968,294.988273 L228.834516,234.793341 Z" id="Shape" fill="#4BB9EC"></path>
                    <path d="M259.084301,131.348351 L246.899785,102.364491 C246.899785,102.364491 194.211613,73.2700234 108.405161,84.3060117 L108.240323,84.3060117 C92.8388172,103.739193 84.1543011,127.608741 84.1543011,156.53993 C84.1543011,216.380464 124.593226,264.890807 174.476882,264.890807 C224.360538,264.890807 264.799462,216.380464 264.799462,156.53993 C264.799462,146.828982 263.634301,137.464156 261.636667,128.509407 C260.077849,130.250546 259.084301,131.348351 259.084301,131.348351 Z" id="Shape" fill="#FFDCAD"></path>
                    <ellipse id="Oval" fill="#AEEFFF" cx="138.347097" cy="156.53993" rx="24.0860215" ry="24.0779727"></ellipse>
                    <path d="M138.347097,132.461957 C131.738495,132.461957 125.757634,135.13085 121.406344,139.439302 L155.453441,173.475021 C159.764086,169.124433 162.433118,163.146324 162.433118,156.53993 C162.433118,143.242117 151.650108,132.461957 138.347097,132.461957 Z" id="Shape" fill="#FFFFFF"></path>
                    <ellipse id="Oval" fill="#AEEFFF" cx="210.605161" cy="156.53993" rx="24.0860215" ry="24.0779727"></ellipse>
                    <path d="M210.77,132.461957 C204.161398,132.461957 198.180538,135.13085 193.829247,139.439302 L227.876344,173.475021 C232.186989,169.124433 234.856022,163.146324 234.856022,156.53993 C234.856022,143.242117 224.073011,132.461957 210.77,132.461957 Z" id="Shape" fill="#FFFFFF"></path>
                    <path d="M270.473226,15.6642261 C269.39086,13.1954815 266.821183,11.7613372 264.110753,12.1315361 C249.021613,14.3120975 230.727527,10.6146238 211.375161,6.73506043 C178.915484,0.221968811 145.368172,-6.51459649 119.141505,12.1902261 C118.75914,12.1134776 118.359462,12.072846 117.947742,12.072846 C91.0564516,12.072846 72.2746237,34.3517427 72.2746237,66.2482846 C72.2746237,92.224655 83.7945161,141.903532 84.2882796,144.008097 C84.9054839,146.647645 87.2169892,148.552062 89.9274194,148.652136 C90.0041935,148.658156 90.0802151,148.658156 90.1509677,148.658156 C92.7733333,148.658156 95.108172,146.953135 95.8962366,144.437739 L112.990538,89.8093333 C184.901613,81.5031852 232.591183,102.107158 242.206022,106.739158 L253.53172,133.685419 C254.507957,136.001419 256.824731,137.600347 259.347742,137.365587 C261.870753,137.254226 264.052043,135.584569 264.822043,133.179782 C282.869247,76.6409396 276.259892,28.8077895 270.473226,15.6642261 Z" id="Shape" fill="#7E5C62"></path>
                    <path d="M186.683978,162.559423 C183.355591,162.559423 180.662473,159.867205 180.662473,156.53993 C180.662473,153.218674 177.963333,150.520437 174.640968,150.520437 C171.318602,150.520437 168.619462,153.218674 168.619462,156.53993 C168.619462,159.867205 165.926344,162.559423 162.597957,162.559423 C159.26957,162.559423 156.576452,159.867205 156.576452,156.53993 C156.576452,146.582183 164.679892,138.48145 174.640968,138.48145 C184.602043,138.48145 192.705484,146.582183 192.705484,156.53993 C192.705484,159.867205 190.012366,162.559423 186.683978,162.559423 Z" id="Shape" fill="#5C546A"></path>
                    <path d="M114.425914,156.53993 L84.1535484,156.53993 C80.8251613,156.53993 78.132043,153.847712 78.132043,150.520437 C78.132043,147.193162 80.8251613,144.500943 84.1535484,144.500943 L114.425914,144.500943 C117.754301,144.500943 120.447419,147.193162 120.447419,150.520437 C120.447419,153.847712 117.754301,156.53993 114.425914,156.53993 Z" id="Shape" fill="#5C546A"></path>
                    <path d="M264.79871,156.53993 L234.856022,156.53993 C231.527634,156.53993 228.834516,153.847712 228.834516,150.520437 C228.834516,147.193162 231.527634,144.500943 234.856022,144.500943 L264.79871,144.500943 C268.127097,144.500943 270.820215,147.193162 270.820215,150.520437 C270.820215,153.847712 268.127097,156.53993 264.79871,156.53993 Z" id="Shape" fill="#5C546A"></path>
                    <path d="M138.511935,186.637396 C121.911398,186.637396 108.404409,173.13492 108.404409,156.53993 C108.404409,139.94494 121.911398,126.442464 138.511935,126.442464 C155.112473,126.442464 168.619462,139.94494 168.619462,156.53993 C168.619462,173.13492 155.112473,186.637396 138.511935,186.637396 Z M138.511935,138.48145 C128.55086,138.48145 120.447419,146.582183 120.447419,156.53993 C120.447419,166.497676 128.55086,174.598409 138.511935,174.598409 C148.473011,174.598409 156.576452,166.497676 156.576452,156.53993 C156.576452,146.582183 148.473011,138.48145 138.511935,138.48145 Z" id="Shape" fill="#868491"></path>
                    <path d="M210.77,186.637396 C194.169462,186.637396 180.662473,173.13492 180.662473,156.53993 C180.662473,139.94494 194.169462,126.442464 210.77,126.442464 C227.370538,126.442464 240.877527,139.94494 240.877527,156.53993 C240.877527,173.13492 227.370538,186.637396 210.77,186.637396 Z M210.77,138.48145 C200.808925,138.48145 192.705484,146.582183 192.705484,156.53993 C192.705484,166.497676 200.808925,174.598409 210.77,174.598409 C220.731075,174.598409 228.834516,166.497676 228.834516,156.53993 C228.834516,146.582183 220.731075,138.48145 210.77,138.48145 Z" id="Shape" fill="#868491"></path>
                    <path d="M60.2323656,385.281423 L60.2323656,345.031329 C60.2323656,330.558963 54.5932258,316.956413 44.3611828,306.727789 L22.1124731,284.486515 C18.9210753,286.982347 16.0375269,289.806242 13.5017204,292.902519 L35.8467742,315.240105 C43.8087097,323.19938 48.1893548,333.780897 48.1893548,345.032082 L48.1893548,385.281423 L60.2323656,385.281423 Z" id="Shape" fill="#7E5C62"></path>
                    <path d="M327.169462,284.485762 L304.920753,306.727037 C294.682688,316.955661 289.04957,330.558211 289.04957,345.030577 L289.04957,385.279918 L301.092581,385.279918 L301.092581,345.030577 C301.092581,333.779392 305.473226,323.197875 313.435161,315.2386 L335.780968,292.900261 C333.245161,289.805489 330.36086,286.982347 327.169462,284.485762 Z" id="Shape" fill="#7E5C62"></path>
                </g>
            </g>
        </g>
    </g>
</svg>