
<svg width="25px" height="25px" viewBox="0 0 25 25" version="1.1" xmlns="http://www.w3.org/2000/svg" xmlns:xlink="http://www.w3.org/1999/xlink">
    <!-- Generator: Sketch 50.2 (55047) - http://www.bohemiancoding.com/sketch -->
    <desc>Created with Sketch.</desc>
    <defs></defs>
    <g id="Page-1" stroke="none" stroke-width="1" fill="none" fill-rule="evenodd">
        <g id="Group-11" fill="#4C4C4C" fill-rule="nonzero">
            <path d="M25,12.5 C25,5.60772727 19.3922727,0 12.5,0 C5.60772727,0 0,5.60772727 0,12.5 C0,16.1404545 1.56545455,19.4218182 4.05727273,21.7081818 L4.04545455,21.7186364 L4.45090909,22.0604545 C4.47727273,22.0827273 4.50590909,22.1009091 4.53227273,22.1227273 C4.74772727,22.3013636 4.97090909,22.4709091 5.19818182,22.635 C5.27181818,22.6881818 5.34545455,22.7413636 5.42045455,22.7931818 C5.66318182,22.9604545 5.91227273,23.1190909 6.16681818,23.2695455 C6.22227273,23.3022727 6.27818182,23.3340909 6.33409091,23.3659091 C6.61272727,23.5245455 6.89727273,23.6740909 7.18863636,23.8113636 C7.21,23.8213636 7.23181818,23.8304545 7.25318182,23.8404545 C8.20272727,24.2818182 9.21636364,24.6059091 10.2763636,24.7972727 C10.3040909,24.8022727 10.3318182,24.8072727 10.36,24.8122727 C10.6890909,24.8690909 11.0218182,24.9145455 11.3586364,24.945 C11.3995455,24.9486364 11.4404545,24.9509091 11.4818182,24.9545455 C11.8172727,24.9822727 12.1563636,25 12.5,25 C12.8404545,25 13.1763636,24.9822727 13.51,24.9554545 C13.5522727,24.9518182 13.5945455,24.9495455 13.6368182,24.9459091 C13.9709091,24.9154545 14.3009091,24.8713636 14.6268182,24.8154545 C14.655,24.8104545 14.6836364,24.8054545 14.7118182,24.8 C15.7559091,24.6127273 16.755,24.2959091 17.6922727,23.8659091 C17.7268182,23.85 17.7618182,23.835 17.7963636,23.8186364 C18.0768182,23.6868182 18.3509091,23.5445455 18.6195455,23.3931818 C18.6863636,23.3554545 18.7527273,23.3172727 18.8190909,23.2781818 C19.0636364,23.1340909 19.3040909,22.9836364 19.5377273,22.8236364 C19.6218182,22.7663636 19.7040909,22.7059091 19.7872727,22.6459091 C19.9868182,22.5022727 20.1827273,22.3540909 20.3731818,22.1990909 C20.4154545,22.165 20.4609091,22.1354545 20.5022727,22.1004545 L20.9181818,21.7531818 L20.9059091,21.7427273 C23.4195455,19.4554545 25,16.1590909 25,12.5 Z M0.909090909,12.5 C0.909090909,6.10863636 6.10863636,0.909090909 12.5,0.909090909 C18.8913636,0.909090909 24.0909091,6.10863636 24.0909091,12.5 C24.0909091,15.9440909 22.5795455,19.0404545 20.1868182,21.165 C20.0531818,21.0727273 19.9186364,20.99 19.7809091,20.9209091 L15.9322727,18.9968182 C15.5868182,18.8240909 15.3722727,18.4768182 15.3722727,18.0909091 L15.3722727,16.7468182 C15.4613636,16.6368182 15.5554545,16.5122727 15.6527273,16.3754545 C16.1509091,15.6718182 16.5504545,14.8890909 16.8418182,14.0468182 C17.4177273,13.7731818 17.7895455,13.1995455 17.7895455,12.5518182 L17.7895455,10.9404545 C17.7895455,10.5463636 17.645,10.1640909 17.3863636,9.86363636 L17.3863636,7.74227273 C17.41,7.50590909 17.4936364,6.175 16.5304545,5.07681818 C15.6927273,4.12045455 14.3368182,3.63636364 12.5,3.63636364 C10.6631818,3.63636364 9.30727273,4.12045455 8.46954545,5.07636364 C7.50636364,6.17454545 7.59,7.50636364 7.61363636,7.74181818 L7.61363636,9.86318182 C7.35545455,10.1636364 7.21045455,10.5459091 7.21045455,10.94 L7.21045455,12.5513636 C7.21045455,13.0518182 7.435,13.5186364 7.81954545,13.8336364 C8.18772727,15.2759091 8.94545455,16.3677273 9.22545455,16.7377273 L9.22545455,18.0531818 C9.22545455,18.4240909 9.02318182,18.765 8.69727273,18.9431818 L5.10318182,20.9036364 C4.98863636,20.9659091 4.875,21.0386364 4.76136364,21.12 C2.39818182,18.9963636 0.909090909,15.9190909 0.909090909,12.5 Z" id="Shape"></path>
        </g>
    </g>
</svg>