
<svg width="30px" height="30px" viewBox="0 0 30 30" version="1.1" xmlns="http://www.w3.org/2000/svg" xmlns:xlink="http://www.w3.org/1999/xlink">
    <!-- Generator: Sketch 50.2 (55047) - http://www.bohemiancoding.com/sketch -->
    <desc>Created with Sketch.</desc>
    <defs></defs>
    <g id="Page-1" stroke="none" stroke-width="1" fill="none" fill-rule="evenodd">
        <g id="Group-3" fill="#283E4A" fill-rule="nonzero">
            <path d="M30,15 C30,6.72927273 23.2707273,0 15,0 C6.72927273,0 0,6.72927273 0,15 C0,19.3685455 1.87854545,23.3061818 4.86872727,26.0498182 L4.85454545,26.0623636 L5.34109091,26.4725455 C5.37272727,26.4992727 5.40709091,26.5210909 5.43872727,26.5472727 C5.69727273,26.7616364 5.96509091,26.9650909 6.23781818,27.162 C6.32618182,27.2258182 6.41454545,27.2896364 6.50454545,27.3518182 C6.79581818,27.5525455 7.09472727,27.7429091 7.40018182,27.9234545 C7.46672727,27.9627273 7.53381818,28.0009091 7.60090909,28.0390909 C7.93527273,28.2294545 8.27672727,28.4089091 8.62636364,28.5736364 C8.652,28.5856364 8.67818182,28.5965455 8.70381818,28.6085455 C9.84327273,29.1381818 11.0596364,29.5270909 12.3316364,29.7567273 C12.3649091,29.7627273 12.3981818,29.7687273 12.432,29.7747273 C12.8269091,29.8429091 13.2261818,29.8974545 13.6303636,29.934 C13.6794545,29.9383636 13.7285455,29.9410909 13.7781818,29.9454545 C14.1807273,29.9787273 14.5876364,30 15,30 C15.4085455,30 15.8116364,29.9787273 16.212,29.9465455 C16.2627273,29.9421818 16.3134545,29.9394545 16.3641818,29.9350909 C16.7650909,29.8985455 17.1610909,29.8456364 17.5521818,29.7785455 C17.586,29.7725455 17.6203636,29.7665455 17.6541818,29.76 C18.9070909,29.5352727 20.106,29.1550909 21.2307273,28.6390909 C21.2721818,28.62 21.3141818,28.602 21.3556364,28.5823636 C21.6921818,28.4241818 22.0210909,28.2534545 22.3434545,28.0718182 C22.4236364,28.0265455 22.5032727,27.9807273 22.5829091,27.9338182 C22.8763636,27.7609091 23.1649091,27.5803636 23.4452727,27.3883636 C23.5461818,27.3196364 23.6449091,27.2470909 23.7447273,27.1750909 C23.9841818,27.0027273 24.2192727,26.8249091 24.4478182,26.6389091 C24.4985455,26.598 24.5530909,26.5625455 24.6027273,26.5205455 L25.1018182,26.1038182 L25.0870909,26.0912727 C28.1034545,23.3465455 30,19.3909091 30,15 Z M1.09090909,15 C1.09090909,7.33036364 7.33036364,1.09090909 15,1.09090909 C22.6696364,1.09090909 28.9090909,7.33036364 28.9090909,15 C28.9090909,19.1329091 27.0954545,22.8485455 24.2241818,25.398 C24.0638182,25.2872727 23.9023636,25.188 23.7370909,25.1050909 L19.1187273,22.7961818 C18.7041818,22.5889091 18.4467273,22.1721818 18.4467273,21.7090909 L18.4467273,20.0961818 C18.5536364,19.9641818 18.6665455,19.8147273 18.7832727,19.6505455 C19.3810909,18.8061818 19.8605455,17.8669091 20.2101818,16.8561818 C20.9012727,16.5278182 21.3474545,15.8394545 21.3474545,15.0621818 L21.3474545,13.1285455 C21.3474545,12.6556364 21.174,12.1969091 20.8636364,11.8363636 L20.8636364,9.29072727 C20.892,9.00709091 20.9923636,7.41 19.8365455,6.09218182 C18.8312727,4.94454545 17.2041818,4.36363636 15,4.36363636 C12.7958182,4.36363636 11.1687273,4.94454545 10.1634545,6.09163636 C9.00763636,7.40945455 9.108,9.00763636 9.13636364,9.29018182 L9.13636364,11.8358182 C8.82654545,12.1963636 8.65254545,12.6550909 8.65254545,13.128 L8.65254545,15.0616364 C8.65254545,15.6621818 8.922,16.2223636 9.38345455,16.6003636 C9.82527273,18.3310909 10.7345455,19.6412727 11.0705455,20.0852727 L11.0705455,21.6638182 C11.0705455,22.1089091 10.8278182,22.518 10.4367273,22.7318182 L6.12381818,25.0843636 C5.98636364,25.1590909 5.85,25.2463636 5.71363636,25.344 C2.87781818,22.7956364 1.09090909,19.1029091 1.09090909,15 Z" id="Shape"></path>
        </g>
    </g>
</svg>